<svg width="24" height="23" viewBox="0 0 24 23" fill="none" xmlns="http://www.w3.org/2000/svg">
<path d="M12 6C12.8284 6 13.5 5.32843 13.5 4.5V1.5C13.5 0.67157 12.8284 0 12 0C11.1716 0 10.5 0.67157 10.5 1.5V4.5C10.5 5.32843 11.1716 6 12 6Z" fill="#34E27B"/>
<path d="M8.27117 5.60635L6.14917 3.48535C5.55483 2.9209 4.62251 2.9209 4.02817 3.48535C3.4426 4.0711 3.4426 5.0206 4.02817 5.60635L6.15017 7.72735C6.43115 8.00918 6.8132 8.1669 7.21117 8.16535C7.81701 8.16441 8.36282 7.79912 8.59467 7.23939C8.82652 6.67966 8.6989 6.03542 8.27117 5.60635Z" fill="#34E27B"/>
<path d="M0.5 11.5C0.5 12.3284 1.17157 13 2 13H5C5.82843 13 6.5 12.3284 6.5 11.5C6.5 10.6716 5.82843 10 5 10H2C1.17157 10 0.5 10.6716 0.5 11.5Z" fill="#34E27B"/>
<path d="M6.9571 15.024C6.55943 15.0225 6.17771 15.1803 5.8971 15.462L3.7751 17.584C3.21816 18.1753 3.23298 19.1024 3.80853 19.6755C4.38408 20.2486 5.31125 20.2595 5.9001 19.7L8.0221 17.578C8.44996 17.1488 8.57752 16.5044 8.34541 15.9445C8.1133 15.3847 7.56713 15.0196 6.9611 15.019L6.9571 15.024Z" fill="#34E27B"/>
<path d="M10.5 21.5C10.5 22.3284 11.1716 23 12 23C12.8284 23 13.5 22.3284 13.5 21.5V18.5C13.5 17.6716 12.8284 17 12 17C11.1716 17 10.5 17.6716 10.5 18.5V21.5Z" fill="#34E27B"/>
<path d="M16.0492 15.5057C15.4636 16.0915 15.4636 17.041 16.0492 17.6267L18.1712 19.7477C18.7574 20.3356 19.7093 20.337 20.2972 19.7507C20.8851 19.1645 20.8864 18.2126 20.3002 17.6247L18.1732 15.4997C17.891 15.2184 17.5084 15.0609 17.1099 15.062C16.7114 15.0631 16.3298 15.2228 16.0492 15.5057Z" fill="#34E27B"/>
<path d="M23.5 11.5C23.5 10.6716 22.8284 10 22 10H19C18.1716 10 17.5 10.6716 17.5 11.5C17.5 12.3284 18.1716 13 19 13H22C22.8284 13 23.5 12.3284 23.5 11.5Z" fill="#34E27B"/>
<path d="M19.0441 2.91017C18.6465 2.90866 18.2647 3.06639 17.9841 3.34817L15.8641 5.46817C15.5823 5.74954 15.424 6.13143 15.424 6.52967C15.424 6.92791 15.5823 7.3098 15.8641 7.59117C16.4499 8.17674 17.3994 8.17674 17.9851 7.59117L20.1061 5.47117C20.5355 5.04203 20.664 4.39637 20.4314 3.83559C20.1989 3.27481 19.6512 2.90949 19.0441 2.91017Z" fill="#34E27B"/>
</svg>
